# xmcd
#
# Track frame offsets:
#	182
#	13606
#	25971
#	39471
#	52044
#	65475
#	79802
#	93834
#	107742
#	120842
#	133250
#	146641
#	160068
#	173907
#	187247
#	200536
#	213752
#	227075
#
# Disc length: 3207 seconds
#
# Revision: 0
# Processed by: cddbd v1.5.1PL0 Copyright (c) Steve Scherf et al.
# Submitted via: dBpowerAMP V4.0
#
DISCID=f80c8512
DTITLE=King Oliver - The Quintessence
DYEAR=1996
DGENRE=Blues
TTITLE0=Chattanooga Stomp
TTITLE1=London (Café) Blues
TTITLE2=Camp Meeting Blues
TTITLE3=Tom Cat (Blues)
TTITLE4=Too Bad
TTITLE5=Snag It
TTITLE6=Deep Henderson
TTITLE7=Jackass Blues
TTITLE8=Sugar Foot Stomp
TTITLE9=Wa Wa Wa
TTITLE10=Showboat Shuffle
TTITLE11=Tin Roof Blues
TTITLE12=You Are Such A Cruel Papa To Me
TTITLE13=My Different Kind Of Man
TTITLE14=Tell Me Woman Blues
TTITLE15=Frisco Train Blues
TTITLE16=In The Bottle Blues
TTITLE17=What Ya Want Me To Do ?
EXTD=
EXTT0=
EXTT1=
EXTT2=
EXTT3=
EXTT4=
EXTT5=
EXTT6=
EXTT7=
EXTT8=
EXTT9=
EXTT10=
EXTT11=
EXTT12=
EXTT13=
EXTT14=
EXTT15=
EXTT16=
EXTT17=
PLAYORDER=
